HIERARCHY
ROOT Hips
{
	OFFSET 0.000000 0.000000 0.000000
	CHANNELS 6 Xposition Yposition Zposition Zrotation Yrotation Xrotation 
	JOINT LowerBack
	{
		OFFSET 0.000000 0.000000 0.000000
		CHANNELS 3 Zrotation Yrotation Xrotation
		JOINT Spine
		{
			OFFSET 0.028270 2.035590 -0.193380
			CHANNELS 3 Zrotation Yrotation Xrotation
			JOINT Spine1
			{
				OFFSET 0.056720 2.048850 -0.042750
				CHANNELS 3 Zrotation Yrotation Xrotation
				JOINT Neck
				{
					OFFSET 0.000000 0.000000 0.000000
					CHANNELS 3 Zrotation Yrotation Xrotation
					JOINT Neck1
					{
						OFFSET -0.054170 1.746240 0.172020
						CHANNELS 3 Zrotation Yrotation Xrotation
						JOINT Head
						{
							OFFSET 0.104070 1.761360 -0.123970
							CHANNELS 3 Zrotation Yrotation Xrotation
							End Site
							{
								OFFSET 0.000000 0.000000 0.000000
							}
						}
					}
				}
				JOINT LeftShoulder
				{
					OFFSET 0.000000 0.000000 0.000000
					CHANNELS 3 Zrotation Yrotation Xrotation
					JOINT LeftArm
					{
						OFFSET 3.362410 1.200890 -0.311210
						CHANNELS 3 Zrotation Yrotation Xrotation
						JOINT LeftForeArm
						{
							OFFSET 4.983000 -0.000000 -0.000000
							CHANNELS 3 Zrotation Yrotation Xrotation
							JOINT LeftHand
							{
								OFFSET 3.483560 -0.000000 -0.000000
								CHANNELS 3 Zrotation Yrotation Xrotation
								JOINT LeftFingerBase
								{
									OFFSET 0.000000 0.000000 0.000000
									CHANNELS 3 Zrotation Yrotation Xrotation
									JOINT LeftHandIndex1
									{
										OFFSET 0.715260 -0.000000 -0.000000
										CHANNELS 3 Zrotation Yrotation Xrotation
										End Site
										{
											OFFSET 0.000000 0.000000 0.000000
										}
									}
								}
								JOINT LThumb
								{
									OFFSET 0.000000 0.000000 0.000000
									CHANNELS 3 Zrotation Yrotation Xrotation
									End Site
									{
										OFFSET 0.000000 0.000000 0.000000
									}
								}
							}
						}
					}
				}
				JOINT RightShoulder
				{
					OFFSET 0.000000 0.000000 0.000000
					CHANNELS 3 Zrotation Yrotation Xrotation
					JOINT RightArm
					{
						OFFSET -3.136600 1.374050 -0.404650
						CHANNELS 3 Zrotation Yrotation Xrotation
						JOINT RightForeArm
						{
							OFFSET -5.241900 -0.000000 -0.000000
							CHANNELS 3 Zrotation Yrotation Xrotation
							JOINT RightHand
							{
								OFFSET -3.444170 -0.000000 -0.000000
								CHANNELS 3 Zrotation Yrotation Xrotation
								JOINT RightFingerBase
								{
									OFFSET 0.000000 0.000000 0.000000
									CHANNELS 3 Zrotation Yrotation Xrotation
									JOINT RightHandIndex1
									{
										OFFSET -0.622530 -0.000000 -0.000000
										CHANNELS 3 Zrotation Yrotation Xrotation
										End Site
										{
											OFFSET 0.000000 0.000000 0.000000
										}
									}
								}
								JOINT RThumb
								{
									OFFSET 0.000000 0.000000 0.000000
									CHANNELS 3 Zrotation Yrotation Xrotation
									End Site
									{
										OFFSET 0.000000 0.000000 0.000000
									}
								}
							}
						}
					}
				}
			}
		}
	}
}
}
MOTION
Frames: 7
Frame Time: 0.008333
4.632533 17.378822 0.142799 -169.021235 -70.983813 -169.156470 1.081727 -0.873583 3.198301 -0.886712 -0.865907 -2.079704 -8.786165 -0.518452 0.528199 10.114821 -11.936290 -3.706845 -3.168028 -0.270319 0.876129 0.000000 0.000000 0.000000 6.199567 3.911544 0.558257 -51.929900 -11.885415 40.842727 -178.564450 -64.428504 179.985593 2.063815 2.107064 0.035310 -0.135803 0.395389 -0.000000 0.000000 0.000000 0.000000 0.000000 0.000000 0.000000 7.710002 -8.802346 -0.221640 78.266641 12.817454 44.229045 179.146618 72.424191 179.945386 -8.131074 8.725318 -0.693485 0.273710 -0.740873 -0.000000 0.000000 0.000000 0.000000 0.000000 0.000000 0.000000 
4.629085 17.379257 0.147254 -169.324967 -70.526064 -169.012238 1.305285 -0.834821 3.109791 -0.891978 -0.848389 -2.026040 -8.964558 -0.484419 0.783565 10.057207 -11.990387 -3.721078 -3.137194 -0.268017 0.873016 0.000000 0.000000 0.000000 6.454684 4.115599 0.751722 -49.546458 -14.129040 41.950787 -178.528531 -64.215737 179.988495 1.530379 2.832940 0.037940 -0.126164 0.357864 -0.000000 0.000000 0.000000 0.000000 0.000000 0.000000 0.000000 7.744404 -8.973618 -0.243666 78.000451 13.150856 44.577886 179.151743 72.404868 179.945542 -8.109926 8.675036 -0.687907 0.273394 -0.739222 -0.000000 0.000000 0.000000 0.000000 0.000000 0.000000 0.000000 
4.625068 17.379707 0.154089 -169.610836 -70.090272 -168.897123 1.529174 -0.797601 3.005421 -0.897766 -0.833846 -1.971520 -9.132592 -0.454743 1.044335 10.034885 -12.052344 -3.735002 -3.096786 -0.265123 0.870696 0.000000 0.000000 0.000000 6.801790 4.311271 0.945419 -47.091924 -16.539077 42.886687 -178.521196 -64.075000 179.991595 0.963649 3.401645 0.030747 -0.111866 0.325191 -0.000000 0.000000 0.000000 0.000000 0.000000 0.000000 0.000000 7.795813 -9.165569 -0.262582 77.675441 13.502157 44.905800 179.159870 72.370451 179.945659 -8.088809 8.621013 -0.682038 0.272548 -0.737006 -0.000000 0.000000 0.000000 0.000000 0.000000 0.000000 0.000000 
4.620769 17.380211 0.163286 -169.877994 -69.679254 -168.812873 1.748144 -0.762113 2.886220 -0.903765 -0.822229 -1.919422 -9.283946 -0.430606 1.296665 10.048106 -12.122912 -3.738806 -3.049172 -0.261959 0.872061 0.000000 0.000000 0.000000 7.255938 4.453585 1.126486 -44.563103 -19.034969 43.616591 -178.553386 -63.982679 179.994600 0.449903 3.703352 0.017758 -0.095045 0.302726 -0.000000 0.000000 0.000000 0.000000 0.000000 0.000000 0.000000 7.866192 -9.378030 -0.271636 77.282876 13.870193 45.211459 179.169392 72.319497 179.945751 -8.069285 8.564047 -0.675974 0.271409 -0.734328 -0.000000 0.000000 0.000000 0.000000 0.000000 0.000000 0.000000 
4.616029 17.380764 0.174856 -170.119737 -69.293374 -168.760595 1.958185 -0.729534 2.753221 -0.909294 -0.814459 -1.873423 -9.413503 -0.414188 1.526498 10.095949 -12.203635 -3.722774 -2.997218 -0.258880 0.879949 0.000000 0.000000 0.000000 7.826869 4.492027 1.281576 -41.951611 -21.509124 44.123469 -178.633895 -63.907043 179.997208 0.071725 3.682770 0.005692 -0.077946 0.293564 0.000000 0.000000 0.000000 0.000000 0.000000 0.000000 0.000000 7.957867 -9.610871 -0.263656 76.815231 14.256390 45.497647 179.177742 72.250137 179.945841 -8.053740 8.504599 -0.670112 0.270390 -0.731335 -0.000000 0.000000 0.000000 0.000000 0.000000 0.000000 0.000000 
4.611087 17.381407 0.188798 -170.337345 -68.930964 -168.738761 2.155904 -0.702480 2.608722 -0.913602 -0.812797 -1.836506 -9.518134 -0.408725 1.722527 10.176086 -12.294751 -3.679710 -2.943680 -0.256199 0.896471 0.000000 0.000000 0.000000 8.515326 4.385086 1.400256 -39.241453 -23.852361 44.411329 -178.766830 -63.811020 179.999121 -0.121096 3.346160 -0.000543 -0.062010 0.297962 0.000000 0.000000 0.000000 0.000000 0.000000 0.000000 0.000000 8.072908 -9.861884 -0.233351 76.268443 14.665961 45.769724 179.182275 72.161757 179.945953 -8.044628 8.442925 -0.664647 0.269943 -0.728177 -0.000000 0.000000 0.000000 0.000000 0.000000 0.000000 0.000000 
4.605682 17.382220 0.205023 -170.529035 -68.588645 -168.741903 2.338961 -0.684148 2.453994 -0.915895 -0.820091 -1.810968 -9.596508 -0.417716 1.878289 10.286336 -12.397994 -3.606790 -2.890913 -0.254130 0.922441 0.000000 0.000000 0.000000 9.314112 4.101319 1.476482 -36.424213 -25.956410 44.507708 -178.950726 -63.661267 -179.999848 -0.133204 2.747107 -0.000959 -0.047096 0.313709 0.000000 0.000000 0.000000 0.000000 0.000000 0.000000 0.000000 8.215284 -10.130011 -0.177241 75.639791 15.106348 46.035505 179.180170 72.055473 179.946123 -8.044251 8.378730 -0.659674 0.270566 -0.724954 -0.000000 0.000000 0.000000 0.000000 0.000000 0.000000 0.000000 
